<svg width="88" height="32" viewBox="0 0 88 32" fill="none" xmlns="http://www.w3.org/2000/svg">
<path d="M33.1498 14.8L35.7268 16.752L44.7268 12.752L37.7498 18.251L37.7498 25C37.75 25.205 37.8132 25.405 37.9308 25.5728C38.0485 25.7407 38.2149 25.8684 38.4075 25.9386C38.6001 26.0087 38.8096 26.018 39.0077 25.9651C39.2057 25.9123 39.3828 25.7998 39.5148 25.643L42.6448 21.924L49.1498 26.8C49.2847 26.9015 49.4431 26.9671 49.6102 26.9908C49.7774 27.0146 49.9478 26.9956 50.1056 26.9357C50.2635 26.8758 50.4036 26.7769 50.5129 26.6483C50.6222 26.5196 50.6972 26.3654 50.7308 26.2L54.7308 6.19999C54.7662 6.02331 54.7532 5.84035 54.6932 5.67044C54.6332 5.50053 54.5284 5.34999 54.3899 5.23473C54.2514 5.11948 54.0843 5.04379 53.9063 5.01567C53.7284 4.98755 53.5461 5.00805 53.3788 5.07499L33.3788 13.075C33.2147 13.1412 33.0711 13.2497 32.9627 13.3895C32.8543 13.5293 32.7849 13.6954 32.7616 13.8708C32.7383 14.0461 32.762 14.2246 32.8302 14.3878C32.8984 14.551 33.0087 14.6933 33.1498 14.8Z" fill="#FDCB12"/>
<rect x="45.25" y="2.1001" width="11" height="11" rx="4.5" fill="#DE3B40"/>
<rect x="45.25" y="2.1001" width="11" height="11" rx="4.5" stroke="white" stroke-width="2"/>
</svg>
