<svg width="28" height="28" viewBox="0 0 28 28" fill="none" xmlns="http://www.w3.org/2000/svg">
<path d="M16 16H12C9.879 16.0024 7.84555 16.846 6.34578 18.3458C4.846 19.8456 4.00238 21.879 4 24C3.99986 24.212 4.06711 24.4186 4.19203 24.5899C4.31696 24.7612 4.49309 24.8883 4.695 24.953C7.73184 25.7387 10.8645 26.0912 14 26C17.1355 26.0912 20.2682 25.7387 23.305 24.953C23.5069 24.8883 23.683 24.7612 23.808 24.5899C23.9329 24.4186 24.0001 24.212 24 24C23.9976 21.879 23.154 19.8456 21.6542 18.3458C20.1544 16.846 18.121 16.0024 16 16Z" fill="#565E6C"/>
<path d="M14 13.9999C17.1 13.9999 19.5 10.5299 19.5 7.54492C19.5 6.08623 18.9205 4.68728 17.8891 3.65583C16.8576 2.62438 15.4587 2.04492 14 2.04492C12.5413 2.04492 11.1424 2.62438 10.1109 3.65583C9.07946 4.68728 8.5 6.08623 8.5 7.54492C8.5 10.5299 10.9 13.9999 14 13.9999Z" fill="#565E6C"/>
</svg>
