<svg width="44" height="44" viewBox="0 0 44 44" fill="none" xmlns="http://www.w3.org/2000/svg">
<path d="M28.5 14.5L15.5 14.5C14.9477 14.5 14.5 14.9477 14.5 15.5L14.5 28.5C14.5 29.0523 14.9477 29.5 15.5 29.5L28.5 29.5C29.0523 29.5 29.5 29.0523 29.5 28.5L29.5 15.5C29.5 14.9477 29.0523 14.5 28.5 14.5Z" stroke="#FDCB12" stroke-linecap="round" stroke-linejoin="round"/>
<path d="M16.5 25.5L18.5 21.5L20.5 23.5L23.5 19.5L27.5 25.5L16.5 25.5Z" stroke="#FDCB12" stroke-linecap="round" stroke-linejoin="round"/>
<path d="M20 19C20.5523 19 21 18.5523 21 18C21 17.4477 20.5523 17 20 17C19.4477 17 19 17.4477 19 18C19 18.5523 19.4477 19 20 19Z" fill="#FDCB12"/>
</svg>
