<svg width="16" height="16" viewBox="0 0 16 16" fill="none" xmlns="http://www.w3.org/2000/svg">
<path d="M12.8 6.40015C12.71 6.40072 12.6203 6.41159 12.5328 6.43255C12.2077 5.48902 11.5962 4.67048 10.7836 4.09105C9.97109 3.51162 8.99798 3.2002 8 3.2002C7.00202 3.2002 6.02891 3.51162 5.21637 4.09105C4.40383 4.67048 3.79235 5.48902 3.4672 6.43255C3.37966 6.41159 3.29001 6.40072 3.2 6.40015C2.88174 6.40015 2.57652 6.52657 2.35147 6.75162C2.12643 6.97666 2 7.28189 2 7.60015C2 7.91841 2.12643 8.22363 2.35147 8.44868C2.57652 8.67372 2.88174 8.80015 3.2 8.80015C3.2244 8.80015 3.2468 8.79455 3.2708 8.79295C3.45734 9.91246 4.03497 10.9295 4.90094 11.6631C5.76691 12.3967 6.86506 12.7994 8 12.7994C9.13494 12.7994 10.2331 12.3967 11.0991 11.6631C11.965 10.9295 12.5427 9.91246 12.7292 8.79295C12.7532 8.79295 12.7756 8.80015 12.8 8.80015C13.1183 8.80015 13.4235 8.67372 13.6485 8.44868C13.8736 8.22363 14 7.91841 14 7.60015C14 7.28189 13.8736 6.97666 13.6485 6.75162C13.4235 6.52657 13.1183 6.40015 12.8 6.40015Z" stroke="#9095A0" stroke-width="0.96" stroke-miterlimit="10" stroke-linecap="square"/>
<path d="M6.0001 7.5998C6.22101 7.5998 6.4001 7.42072 6.4001 7.1998C6.4001 6.97889 6.22101 6.7998 6.0001 6.7998C5.77918 6.7998 5.6001 6.97889 5.6001 7.1998C5.6001 7.42072 5.77918 7.5998 6.0001 7.5998Z" stroke="#9095A0" stroke-width="0.96" stroke-miterlimit="10" stroke-linecap="square"/>
<path d="M10.0001 7.5998C10.221 7.5998 10.4001 7.42072 10.4001 7.1998C10.4001 6.97889 10.221 6.7998 10.0001 6.7998C9.77918 6.7998 9.6001 6.97889 9.6001 7.1998C9.6001 7.42072 9.77918 7.5998 10.0001 7.5998Z" stroke="#9095A0" stroke-width="0.96" stroke-miterlimit="10" stroke-linecap="square"/>
<path d="M8.00006 3.2002C7.8027 3.20015 7.60838 3.24879 7.43431 3.34179C7.26024 3.4348 7.11179 3.5693 7.00212 3.73339C6.89246 3.89747 6.82495 4.08608 6.80559 4.28248C6.78623 4.47889 6.81561 4.67704 6.89114 4.85938C6.96666 5.04172 7.08598 5.20262 7.23855 5.32782C7.39111 5.45302 7.5722 5.53866 7.76577 5.57715C7.95934 5.61564 8.15941 5.6058 8.34827 5.54849C8.53712 5.49118 8.70893 5.38817 8.84846 5.2486" stroke="#9095A0" stroke-width="0.96" stroke-miterlimit="10"/>
<path d="M7.9999 10.8002C8.42425 10.8002 8.83121 10.6316 9.13127 10.3316C9.43133 10.0315 9.5999 9.62454 9.5999 9.2002H6.3999C6.3999 9.62454 6.56847 10.0315 6.86853 10.3316C7.16859 10.6316 7.57556 10.8002 7.9999 10.8002Z" stroke="#9095A0" stroke-width="0.96" stroke-miterlimit="10" stroke-linecap="square"/>
</svg>
