<svg width="44" height="44" viewBox="0 0 44 44" fill="none" xmlns="http://www.w3.org/2000/svg">
<path d="M15.5 15.5L17.5 15.5" stroke="#FDCB12" stroke-miterlimit="10" stroke-linecap="round" stroke-linejoin="round"/>
<path d="M23 26.5C24.933 26.5 26.5 24.933 26.5 23C26.5 21.067 24.933 19.5 23 19.5C21.067 19.5 19.5 21.067 19.5 23C19.5 24.933 21.067 26.5 23 26.5Z" stroke="#FDCB12" stroke-miterlimit="10" stroke-linecap="round" stroke-linejoin="round"/>
<path d="M16.5 19.5H17.5" stroke="#FDCB12" stroke-miterlimit="10" stroke-linecap="round" stroke-linejoin="round"/>
<path d="M28.5 17.5H26.5L25.5 15.5L20.5 15.5L19.5 17.5L15.5 17.5C14.948 17.5 14.5 17.948 14.5 18.5L14.5 27.5C14.5 28.052 14.948 28.5 15.5 28.5L28.5 28.5C29.052 28.5 29.5 28.052 29.5 27.5L29.5 18.5C29.5 17.948 29.052 17.5 28.5 17.5Z" stroke="#FDCB12" stroke-miterlimit="10" stroke-linecap="round" stroke-linejoin="round"/>
</svg>
