<svg width="14" height="14" viewBox="0 0 14 14" fill="none" xmlns="http://www.w3.org/2000/svg">
<path d="M7 1.75L7 12.25" stroke="#171A1F" stroke-width="0.84" stroke-miterlimit="10"/>
<path d="M1.75 7L12.25 7" stroke="#171A1F" stroke-width="0.84" stroke-miterlimit="10"/>
<path d="M6.99985 12.25C8.65662 12.25 9.9997 9.8995 9.9997 7C9.9997 4.10051 8.65662 1.75 6.99985 1.75C5.34308 1.75 4 4.10051 4 7C4 9.8995 5.34308 12.25 6.99985 12.25Z" stroke="#171A1F" stroke-width="0.84" stroke-miterlimit="10" stroke-linecap="square"/>
<path d="M2.55859 4.2002L11.4416 4.2002" stroke="#171A1F" stroke-width="0.84" stroke-miterlimit="10"/>
<path d="M2.55859 9.7998L11.4416 9.7998" stroke="#171A1F" stroke-width="0.84" stroke-miterlimit="10"/>
<path d="M7 12.25C9.8995 12.25 12.25 9.8995 12.25 7C12.25 4.10051 9.8995 1.75 7 1.75C4.10051 1.75 1.75 4.10051 1.75 7C1.75 9.8995 4.10051 12.25 7 12.25Z" stroke="#171A1F" stroke-width="0.84" stroke-miterlimit="10" stroke-linecap="square"/>
</svg>
