<svg width="28" height="28" viewBox="0 0 28 28" fill="none" xmlns="http://www.w3.org/2000/svg">
<path d="M23.8546 20.4819C22.6693 18.5231 22.0289 16.2832 21.9996 13.9939V10.0059C21.9996 7.88413 21.1568 5.8493 19.6565 4.349C18.1562 2.84871 16.1214 2.00586 13.9996 2.00586C11.8779 2.00586 9.84306 2.84871 8.34277 4.349C6.84247 5.8493 5.99962 7.88413 5.99962 10.0059L5.99962 13.9879C5.97133 16.2792 5.33088 18.5213 4.14462 20.4819C4.05279 20.6335 4.00292 20.8068 4.00012 20.9841C3.99733 21.1613 4.0417 21.3361 4.1287 21.4906C4.2157 21.6451 4.3422 21.7736 4.49523 21.8631C4.64827 21.9526 4.82234 21.9998 4.99962 21.9999L22.9996 21.9999C23.1769 21.9998 23.351 21.9526 23.504 21.8631C23.657 21.7736 23.7835 21.6451 23.8705 21.4906C23.9575 21.3361 24.0019 21.1613 23.9991 20.9841C23.9963 20.8068 23.9464 20.6335 23.8546 20.4819Z" fill="#FDCB12"/>
<path d="M15.0068 25.8249C15.4259 25.6755 15.8066 25.4348 16.1212 25.1202C16.4358 24.8056 16.6765 24.425 16.8258 24.0059H11.1738C11.3061 24.377 11.5101 24.7184 11.7743 25.0107C12.0385 25.3029 12.3577 25.5403 12.7136 25.7092C13.0695 25.8781 13.4552 25.9753 13.8487 25.9951C14.2422 26.015 14.6357 25.9571 15.0068 25.8249Z" fill="#FDCB12"/>
</svg>
