<svg width="28" height="11" viewBox="0 0 28 11" fill="none" xmlns="http://www.w3.org/2000/svg">
<path d="M3.87858 0C1.61367 0 0 1.54852 0 3.66871V3.68325C0 5.66587 1.40379 7.12764 3.40823 7.12764C4.84091 7.12764 5.75273 6.39681 6.13623 5.57184H6.28096C6.28096 5.65143 6.27369 5.73102 6.27369 5.81061C6.1941 7.80777 5.49226 9.42872 3.83516 9.42872C2.91616 9.42872 2.27219 8.95109 1.99717 8.22025L1.97545 8.14794H0.137459L0.152004 8.22753C0.484797 9.82665 1.91758 10.9628 3.83516 10.9628C6.46185 10.9628 8.04654 8.87877 8.04654 5.36197V5.34752C8.04654 1.58478 6.10724 0 3.87858 0ZM3.87131 5.69486C2.68457 5.69486 1.82355 4.82657 1.82355 3.61811V3.60367C1.82355 2.43864 2.74244 1.51964 3.89303 1.51964C5.05079 1.51964 5.95534 2.45308 5.95534 3.64699V3.66154C5.95534 4.84101 5.05079 5.69486 3.87131 5.69486Z" fill="#171A1F"/>
<path d="M10.9764 3.9366C11.6421 3.9366 12.1269 3.43009 12.1269 2.79329C12.1269 2.14932 11.6421 1.64997 10.9764 1.64997C10.3179 1.64997 9.82581 2.14932 9.82581 2.79329C9.82581 3.43009 10.3179 3.9366 10.9764 3.9366ZM10.9764 9.30584C11.6421 9.30584 12.1269 8.8065 12.1269 8.16253C12.1269 7.51855 11.6421 7.01921 10.9764 7.01921C10.3179 7.01921 9.82581 7.51855 9.82581 8.16253C9.82581 8.8065 10.3179 9.30584 10.9764 9.30584Z" fill="#171A1F"/>
<path d="M18.9707 10.7022H20.758V8.69788H22.1618V7.15652H20.758V0.260574H18.1168C16.6985 2.41692 15.2152 4.81929 13.862 7.17107V8.69788H18.9707V10.7022ZM15.5986 7.19995V7.09138C16.6117 5.31853 17.8201 3.38651 18.891 1.75123H18.9996V7.19995H15.5986Z" fill="#171A1F"/>
<path d="M26.1334 10.7022H28.0004V0.260574H26.1407L23.4127 2.17815V3.93645L26.0104 2.09846H26.1334V10.7022Z" fill="#171A1F"/>
</svg>
