<svg width="44" height="44" viewBox="0 0 44 44" fill="none" xmlns="http://www.w3.org/2000/svg">
<path d="M33.1381 10.2655C29.1024 8.2588 24.4801 7.3053 19.6617 7.73203C15.1321 8.13317 10.8767 9.74648 7.38867 12.1637" stroke="#171A1F" stroke-width="2.64" stroke-miterlimit="10"/>
<path d="M8.53341 6.93848L7.38867 12.1637L12.6972 13.2979" stroke="#171A1F" stroke-width="2.64" stroke-miterlimit="10" stroke-linecap="square"/>
<path d="M20.6328 25.8643L21.6051 29.0178" stroke="#171A1F" stroke-width="2.64" stroke-miterlimit="10"/>
<path d="M37.6629 30.7111L36.5448 23.129C36.284 21.3605 34.6626 20.1213 32.8877 20.3339L23.8652 21.4145L21.5966 14.0563C21.2386 12.8952 20.0072 12.2442 18.8461 12.6021C17.685 12.9601 17.0339 14.1916 17.3919 15.3527L19.7896 23.1296L20.6328 25.8644L18.5304 26.5126C17.3693 26.8705 16.7183 28.102 17.0763 29.2631L18.0146 32.3066C18.4562 33.7388 19.372 34.978 20.6115 35.8205L24.5218 38.4785" stroke="#171A1F" stroke-width="2.64" stroke-miterlimit="10"/>
</svg>
