<svg width="28" height="28" viewBox="0 0 28 28" fill="none" xmlns="http://www.w3.org/2000/svg">
<path d="M21 2L7 2C6.20435 2 5.44129 2.31607 4.87868 2.87868C4.31607 3.44129 4 4.20435 4 5L4 25.5C3.99995 25.5895 4.02392 25.6773 4.06939 25.7544C4.11487 25.8314 4.18019 25.8949 4.25854 25.9381C4.33689 25.9813 4.4254 26.0027 4.51483 26C4.60427 25.9974 4.69135 25.9708 4.767 25.923L14 20.092L23.233 25.923C23.3128 25.9737 23.4055 26.0005 23.5 26C23.6326 26 23.7598 25.9473 23.8536 25.8536C23.9473 25.7598 24 25.6326 24 25.5L24 5C24 4.20435 23.6839 3.44129 23.1213 2.87868C22.5587 2.31607 21.7956 2 21 2Z" fill="#565E6C"/>
</svg>
