<svg width="16" height="16" viewBox="0 0 16 16" fill="none" xmlns="http://www.w3.org/2000/svg">
<path d="M10.8 10.0001H11.7296C12.0588 10.0001 12.383 10.0814 12.6732 10.2367C12.9635 10.392 13.2109 10.6166 13.3936 10.8905L13.6 11.2001L7.5328 13.5601C7.18142 13.6969 6.80274 13.749 6.42747 13.7122C6.05219 13.6754 5.69087 13.5506 5.3728 13.3481L2 11.2001L2 7.6001H2.8C3.8524 7.6001 5.0552 7.9869 5.6 8.8001L7.6 8.8001C8.13043 8.8001 8.63914 9.01081 9.01421 9.38588C9.38929 9.76096 9.6 10.2697 9.6 10.8001L5.2 10.8001" stroke="#171A1F" stroke-width="0.96" stroke-miterlimit="10" stroke-linecap="square"/>
<path d="M9.20286 6.7944C10.5268 6.7944 11.6001 5.72114 11.6001 4.3972C11.6001 3.07326 10.5268 2 9.20286 2C7.87893 2 6.80566 3.07326 6.80566 4.3972C6.80566 5.72114 7.87893 6.7944 9.20286 6.7944Z" stroke="#171A1F" stroke-width="0.96" stroke-miterlimit="10" stroke-linecap="square"/>
<path d="M9.2002 3.6001V5.2001" stroke="#171A1F" stroke-width="0.96" stroke-miterlimit="10" stroke-linecap="square"/>
</svg>
