<svg width="16" height="16" viewBox="0 0 16 16" fill="none" xmlns="http://www.w3.org/2000/svg">
<path d="M14.7117 5.25429L12.9523 6.75429L13.4792 8.98742C13.5163 9.14394 13.5064 9.30794 13.4509 9.4589C13.3953 9.60986 13.2964 9.74109 13.1667 9.83617C13.0354 9.93254 12.8787 9.98809 12.7161 9.99587C12.5534 10.0037 12.3921 9.96332 12.2523 9.87992L10.2523 8.69242L8.25229 9.87992C8.11246 9.96332 7.95114 10.0037 7.78851 9.99587C7.62588 9.98809 7.46915 9.93254 7.33791 9.83617C7.20821 9.74103 7.10941 9.6098 7.05383 9.45886C6.99826 9.30791 6.98837 9.14394 7.02541 8.98742L7.55229 6.75429L5.79229 5.25429C5.66913 5.14916 5.57982 5.00995 5.53562 4.85417C5.49141 4.6984 5.49428 4.53302 5.54385 4.37887C5.59343 4.22472 5.68751 4.08868 5.81424 3.98789C5.94097 3.88709 6.09469 3.82604 6.25604 3.81242L8.58291 3.61554L9.49042 1.49992C9.55447 1.3516 9.66053 1.22528 9.79553 1.13653C9.93052 1.04778 10.0885 1.00049 10.2501 1.00049C10.4117 1.00049 10.5697 1.04778 10.7047 1.13653C10.8397 1.22528 10.9457 1.3516 11.0098 1.49992L11.9173 3.61679L14.2435 3.81242C14.4053 3.82511 14.5596 3.88549 14.687 3.98591C14.8144 4.08634 14.9092 4.2223 14.9593 4.37659C15.0094 4.53088 15.0126 4.69657 14.9685 4.8527C14.9245 5.00882 14.8351 5.14836 14.7117 5.25367V5.25429ZM5.35354 7.14617C5.3071 7.09968 5.25196 7.0628 5.19126 7.03764C5.13056 7.01247 5.0655 6.99952 4.99979 6.99952C4.93408 6.99952 4.86902 7.01247 4.80832 7.03764C4.74762 7.0628 4.69248 7.09968 4.64604 7.14617L1.14604 10.6462C1.05222 10.74 0.999512 10.8672 0.999512 10.9999C0.999512 11.1326 1.05222 11.2598 1.14604 11.3537C1.23986 11.4475 1.36711 11.5002 1.49979 11.5002C1.63247 11.5002 1.75972 11.4475 1.85354 11.3537L5.35354 7.85367C5.40003 7.80723 5.43691 7.75209 5.46207 7.69139C5.48723 7.63069 5.50018 7.56562 5.50018 7.49992C5.50018 7.43421 5.48723 7.36915 5.46207 7.30845C5.43691 7.24775 5.40003 7.1926 5.35354 7.14617ZM6.35354 10.6462C6.3071 10.5997 6.25196 10.5628 6.19126 10.5376C6.13056 10.5125 6.0655 10.4995 5.99979 10.4995C5.93408 10.4995 5.86902 10.5125 5.80832 10.5376C5.74762 10.5628 5.69248 10.5997 5.64604 10.6462L2.14604 14.1462C2.09958 14.1926 2.06273 14.2478 2.03759 14.3085C2.01245 14.3692 1.99951 14.4342 1.99951 14.4999C1.99951 14.5656 2.01245 14.6307 2.03759 14.6914C2.06273 14.7521 2.09958 14.8072 2.14604 14.8537C2.23986 14.9475 2.36711 15.0002 2.49979 15.0002C2.56549 15.0002 2.63054 14.9873 2.69124 14.9621C2.75193 14.937 2.80708 14.9001 2.85354 14.8537L6.35354 11.3537C6.40003 11.3072 6.43691 11.2521 6.46207 11.1914C6.48723 11.1307 6.50018 11.0656 6.50018 10.9999C6.50018 10.9342 6.48723 10.8691 6.46207 10.8084C6.43691 10.7477 6.40003 10.6926 6.35354 10.6462ZM10.1467 10.6462L6.64666 14.1462C6.55284 14.24 6.50014 14.3672 6.50014 14.4999C6.50014 14.6326 6.55284 14.7598 6.64666 14.8537C6.74049 14.9475 6.86773 15.0002 7.00041 15.0002C7.1331 15.0002 7.26034 14.9475 7.35416 14.8537L10.8542 11.3537C10.948 11.2599 11.0007 11.1328 11.0008 11.0001C11.0008 10.8675 10.9482 10.7403 10.8545 10.6465C10.7607 10.5527 10.6336 10.4999 10.5009 10.4999C10.3683 10.4998 10.2411 10.5524 10.1473 10.6462H10.1467Z" fill="#9095A0"/>
</svg>
