<svg width="24" height="24" viewBox="0 0 24 24" fill="none" xmlns="http://www.w3.org/2000/svg">
<path d="M13.7141 16.2856L3.42843 16.2856C2.95529 16.2856 2.57129 15.9016 2.57129 15.4284L2.57129 3.42843C2.57129 2.95529 2.95529 2.57129 3.42843 2.57129L18.857 2.57129C19.3301 2.57129 19.7141 2.95529 19.7141 3.42843L19.7141 9.42843" stroke="#2E2400" stroke-width="2.05714" stroke-miterlimit="10" stroke-linecap="square"/>
<path d="M14.5715 12.8571L7.71436 12.8571L7.71436 6L16.2858 6V9.42857" stroke="#2E2400" stroke-width="2.05714" stroke-miterlimit="10" stroke-linecap="square"/>
<path d="M5.14279 10.2856C5.61617 10.2856 5.99993 9.90182 5.99993 9.42843C5.99993 8.95504 5.61617 8.57129 5.14279 8.57129C4.6694 8.57129 4.28564 8.95504 4.28564 9.42843C4.28564 9.90182 4.6694 10.2856 5.14279 10.2856Z" fill="#2E2400"/>
<path d="M20.5713 21.4287L15.4284 21.4287C14.9553 21.4287 14.5713 21.0447 14.5713 20.5716L14.5713 10.2859C14.5713 9.81271 14.9553 9.42871 15.4284 9.42871L20.5713 9.42871C21.0444 9.42871 21.4284 9.81271 21.4284 10.2859L21.4284 20.5716C21.4284 21.0447 21.0444 21.4287 20.5713 21.4287Z" stroke="#2E2400" stroke-width="2.05714" stroke-miterlimit="10" stroke-linecap="square"/>
<path d="M14.5713 18L21.4284 18" stroke="#2E2400" stroke-width="2.05714" stroke-miterlimit="10" stroke-linecap="square"/>
</svg>
