<svg width="16" height="16" viewBox="0 0 16 16" fill="none" xmlns="http://www.w3.org/2000/svg">
<path d="M12.3996 6.39977C12.4002 5.61762 12.1922 4.84946 11.7972 4.17439C11.4022 3.49932 10.8344 2.94175 10.1522 2.5591C9.47007 2.17645 8.69825 1.98255 7.91624 1.99737C7.13423 2.01219 6.37031 2.2352 5.70314 2.64342C5.03598 3.05164 4.48969 3.63032 4.12053 4.31987C3.75137 5.00942 3.57269 5.78491 3.60289 6.56648C3.63309 7.34804 3.87108 8.10743 4.29235 8.76643C4.71361 9.42544 5.30293 9.96024 5.99961 10.3158L5.99961 13.9998L9.99961 13.9998L9.99961 10.3198C10.7221 9.95107 11.3286 9.38983 11.7522 8.69806C12.1757 8.00628 12.3998 7.2109 12.3996 6.39977Z" stroke="#8023EB" stroke-width="0.8" stroke-linecap="round" stroke-linejoin="round"/>
<path d="M6 12.3999L10 12.3999" stroke="#8023EB" stroke-width="0.8" stroke-linecap="round" stroke-linejoin="round"/>
<path d="M6 6.3999C6 5.86947 6.21071 5.36076 6.58579 4.98569C6.96086 4.61062 7.46957 4.3999 8 4.3999" stroke="#8023EB" stroke-width="0.8" stroke-linecap="round" stroke-linejoin="round"/>
</svg>
