<svg width="16" height="16" viewBox="0 0 16 16" fill="none" xmlns="http://www.w3.org/2000/svg">
<path d="M10 6.4L12.8 4" stroke="#413301" stroke-width="0.96" stroke-miterlimit="10" stroke-linecap="square"/>
<path d="M3.2002 4L6.0002 6.4" stroke="#413301" stroke-width="0.96" stroke-miterlimit="10" stroke-linecap="square"/>
<path d="M10 6.3999L6 6.3999L6 9.9999H10V6.3999Z" stroke="#413301" stroke-width="0.96" stroke-miterlimit="10" stroke-linecap="square"/>
<path d="M6.00032 10L4.98632 11.352C4.93307 11.423 4.90492 11.5096 4.9063 11.5983C4.90767 11.687 4.9385 11.7727 4.99392 11.842L6.40032 13.6" stroke="#413301" stroke-width="0.96" stroke-miterlimit="10" stroke-linecap="square"/>
<path d="M9.99961 10L11.0136 11.352C11.0669 11.423 11.095 11.5096 11.0936 11.5983C11.0923 11.687 11.0614 11.7727 11.006 11.842L9.59961 13.6" stroke="#413301" stroke-width="0.96" stroke-miterlimit="10" stroke-linecap="square"/>
<path d="M8.00039 5.2C8.88405 5.2 9.60039 4.48366 9.60039 3.6C9.60039 2.71634 8.88405 2 8.00039 2C7.11673 2 6.40039 2.71634 6.40039 3.6C6.40039 4.48366 7.11673 5.2 8.00039 5.2Z" stroke="#413301" stroke-width="0.96" stroke-miterlimit="10"/>
</svg>
