<svg width="16" height="16" viewBox="0 0 16 16" fill="none" xmlns="http://www.w3.org/2000/svg">
<path d="M12.3996 6.4C12.3996 10 7.99961 14 7.99961 14C7.99961 14 3.59961 10 3.59961 6.4C3.59961 5.23305 4.06318 4.11389 4.88834 3.28873C5.7135 2.46357 6.83266 2 7.99961 2C9.16656 2 10.2857 2.46357 11.1109 3.28873C11.936 4.11389 12.3996 5.23305 12.3996 6.4Z" stroke="#DE3B40" stroke-width="0.8" stroke-linecap="round" stroke-linejoin="round"/>
<path d="M8 8.3999C9.10457 8.3999 10 7.50447 10 6.3999C10 5.29533 9.10457 4.3999 8 4.3999C6.89543 4.3999 6 5.29533 6 6.3999C6 7.50447 6.89543 8.3999 8 8.3999Z" stroke="#DE3B40" stroke-width="0.8" stroke-linecap="round" stroke-linejoin="round"/>
</svg>
