<svg width="24" height="24" viewBox="0 0 24 24" fill="none" xmlns="http://www.w3.org/2000/svg">
<path d="M21 11.25L21 12.75C21 12.9489 20.921 13.1397 20.7803 13.2803C20.6397 13.421 20.4489 13.5 20.25 13.5L3.75 13.5C3.55109 13.5 3.36032 13.421 3.21967 13.2803C3.07902 13.1397 3 12.9489 3 12.75L3 11.25C3 11.0511 3.07902 10.8603 3.21967 10.7197C3.36032 10.579 3.55109 10.5 3.75 10.5L20.25 10.5C20.4489 10.5 20.6397 10.579 20.7803 10.7197C20.921 10.8603 21 11.0511 21 11.25ZM20.25 16.5L3.75 16.5C3.55109 16.5 3.36032 16.579 3.21967 16.7197C3.07902 16.8603 3 17.0511 3 17.25L3 18.75C3 18.9489 3.07902 19.1397 3.21967 19.2803C3.36032 19.421 3.55109 19.5 3.75 19.5L20.25 19.5C20.4489 19.5 20.6397 19.421 20.7803 19.2803C20.921 19.1397 21 18.9489 21 18.75V17.25C21 17.0511 20.921 16.8603 20.7803 16.7197C20.6397 16.579 20.4489 16.5 20.25 16.5ZM20.25 4.5L3.75 4.5C3.55109 4.5 3.36032 4.57902 3.21967 4.71967C3.07902 4.86032 3 5.05109 3 5.25L3 6.75C3 6.94891 3.07902 7.13968 3.21967 7.28033C3.36032 7.42098 3.55109 7.5 3.75 7.5L20.25 7.5C20.4489 7.5 20.6397 7.42098 20.7803 7.28033C20.921 7.13968 21 6.94891 21 6.75V5.25C21 5.05109 20.921 4.86032 20.7803 4.71967C20.6397 4.57902 20.4489 4.5 20.25 4.5Z" fill="#323842"/>
</svg>
