<svg width="16" height="16" viewBox="0 0 16 16" fill="none" xmlns="http://www.w3.org/2000/svg">
<path d="M13.25 5C12.9039 5 12.5655 5.10264 12.2778 5.29493C11.99 5.48722 11.7657 5.76053 11.6332 6.0803C11.5008 6.40008 11.4661 6.75194 11.5336 7.09141C11.6012 7.43088 11.7678 7.7427 12.0126 7.98744C12.2573 8.23218 12.5691 8.39885 12.9086 8.46637C13.2481 8.5339 13.5999 8.49924 13.9197 8.36679C14.2395 8.23434 14.5128 8.01003 14.7051 7.72225C14.8974 7.43446 15 7.09612 15 6.75C15 6.28587 14.8156 5.84075 14.4874 5.51256C14.1592 5.18438 13.7141 5 13.25 5ZM13.25 7.5C13.1017 7.5 12.9567 7.45601 12.8333 7.3736C12.71 7.29119 12.6139 7.17406 12.5571 7.03701C12.5003 6.89997 12.4855 6.74917 12.5144 6.60368C12.5434 6.4582 12.6148 6.32456 12.7197 6.21967C12.8246 6.11478 12.9582 6.04335 13.1037 6.01441C13.2492 5.98547 13.4 6.00033 13.537 6.05709C13.6741 6.11386 13.7912 6.20999 13.8736 6.33332C13.956 6.45666 14 6.60166 14 6.75C14 6.94891 13.921 7.13968 13.7803 7.28033C13.6397 7.42098 13.4489 7.5 13.25 7.5ZM4.5 6.75C4.5 6.40388 4.39737 6.06554 4.20507 5.77775C4.01278 5.48997 3.73947 5.26566 3.4197 5.13321C3.09993 5.00076 2.74806 4.9661 2.40859 5.03363C2.06913 5.10115 1.75731 5.26782 1.51256 5.51256C1.26782 5.75731 1.10115 6.06913 1.03363 6.40859C0.966102 6.74806 1.00076 7.09993 1.13321 7.4197C1.26566 7.73947 1.48997 8.01278 1.77775 8.20507C2.06554 8.39736 2.40388 8.5 2.75 8.5C3.21413 8.5 3.65925 8.31563 3.98744 7.98744C4.31563 7.65925 4.5 7.21413 4.5 6.75ZM2.75 7.5C2.60166 7.5 2.45666 7.45601 2.33332 7.3736C2.20999 7.29119 2.11386 7.17406 2.05709 7.03701C2.00033 6.89997 1.98547 6.74917 2.01441 6.60368C2.04335 6.4582 2.11478 6.32456 2.21967 6.21967C2.32456 6.11478 2.4582 6.04335 2.60368 6.01441C2.74917 5.98547 2.89997 6.00033 3.03701 6.05709C3.17406 6.11386 3.29119 6.20999 3.3736 6.33332C3.45601 6.45666 3.5 6.60166 3.5 6.75C3.5 6.94891 3.42098 7.13968 3.28033 7.28033C3.13968 7.42098 2.94891 7.5 2.75 7.5ZM5.75 5.5C6.09612 5.5 6.43446 5.39737 6.72225 5.20507C7.01004 5.01278 7.23434 4.73947 7.36679 4.4197C7.49924 4.09993 7.5339 3.74806 7.46638 3.40859C7.39885 3.06913 7.23218 2.75731 6.98744 2.51256C6.7427 2.26782 6.43088 2.10115 6.09141 2.03363C5.75194 1.9661 5.40008 2.00076 5.08031 2.13321C4.76053 2.26566 4.48722 2.48997 4.29493 2.77775C4.10264 3.06554 4 3.40388 4 3.75C4 4.21413 4.18438 4.65925 4.51256 4.98744C4.84075 5.31563 5.28587 5.5 5.75 5.5ZM5.75 3C5.89834 3 6.04334 3.04399 6.16668 3.1264C6.29002 3.20881 6.38615 3.32594 6.44291 3.46299C6.49968 3.60003 6.51453 3.75083 6.48559 3.89632C6.45665 4.0418 6.38522 4.17544 6.28033 4.28033C6.17544 4.38522 6.0418 4.45665 5.89632 4.48559C5.75083 4.51453 5.60003 4.49968 5.46299 4.44291C5.32594 4.38614 5.20881 4.29001 5.1264 4.16668C5.04399 4.04334 5 3.89834 5 3.75C5 3.55109 5.07902 3.36032 5.21967 3.21967C5.36032 3.07902 5.55109 3 5.75 3ZM10.25 5.5C10.5961 5.5 10.9345 5.39737 11.2222 5.20507C11.51 5.01278 11.7343 4.73947 11.8668 4.4197C11.9992 4.09993 12.0339 3.74806 11.9664 3.40859C11.8989 3.06913 11.7322 2.75731 11.4874 2.51256C11.2427 2.26782 10.9309 2.10115 10.5914 2.03363C10.2519 1.9661 9.90008 2.00076 9.58031 2.13321C9.26053 2.26566 8.98722 2.48997 8.79493 2.77775C8.60264 3.06554 8.5 3.40388 8.5 3.75C8.5 4.21413 8.68437 4.65925 9.01256 4.98744C9.34075 5.31563 9.78587 5.5 10.25 5.5ZM10.25 3C10.3983 3 10.5433 3.04399 10.6667 3.1264C10.79 3.20881 10.8861 3.32594 10.9429 3.46299C10.9997 3.60003 11.0145 3.75083 10.9856 3.89632C10.9567 4.0418 10.8852 4.17544 10.7803 4.28033C10.6754 4.38522 10.5418 4.45665 10.3963 4.48559C10.2508 4.51453 10.1 4.49968 9.96299 4.44291C9.82594 4.38614 9.70881 4.29001 9.6264 4.16668C9.54399 4.04334 9.5 3.89834 9.5 3.75C9.5 3.55109 9.57902 3.36032 9.71967 3.21967C9.86032 3.07902 10.0511 3 10.25 3ZM11.695 9.30375C11.441 9.16364 11.2172 8.97483 11.0363 8.74811C10.8553 8.52139 10.7209 8.26123 10.6406 7.9825C10.4744 7.41078 10.1271 6.90846 9.6509 6.55102C9.17472 6.19359 8.5954 6.00035 8 6.00035C7.4046 6.00035 6.82528 6.19359 6.34911 6.55102C5.87293 6.90846 5.52562 7.41078 5.35938 7.9825C5.19878 8.54335 4.8223 9.01761 4.3125 9.30125C3.82345 9.56588 3.43658 9.98599 3.21308 10.4952C2.98958 11.0043 2.94221 11.5735 3.07845 12.1126C3.2147 12.6517 3.52679 13.13 3.96536 13.4718C4.40393 13.8136 4.94395 13.9995 5.5 14C5.83323 14.001 6.16319 13.9344 6.47 13.8044C7.44817 13.401 8.54621 13.401 9.52438 13.8044C10.1168 14.0621 10.7861 14.0804 11.3917 13.8554C11.9974 13.6305 12.4925 13.1799 12.7732 12.598C13.0539 12.016 13.0984 11.3481 12.8974 10.734C12.6964 10.12 12.2655 9.60766 11.695 9.30438V9.30375ZM10.5 13C10.297 13.0002 10.0961 12.9591 9.90938 12.8794C8.68476 12.3735 7.30961 12.3735 6.085 12.8794C5.72913 13.0326 5.32776 13.0422 4.96498 12.9061C4.6022 12.77 4.30615 12.4988 4.13885 12.1494C3.97154 11.7999 3.94595 11.3992 4.06745 11.0313C4.18895 10.6634 4.4481 10.3567 4.79063 10.1756C5.1589 9.97224 5.48347 9.69826 5.74579 9.36935C6.0081 9.04043 6.20301 8.66304 6.31938 8.25875C6.42504 7.89475 6.64603 7.57489 6.94911 7.34727C7.25219 7.11966 7.62097 6.9966 8 6.9966C8.37903 6.9966 8.74782 7.11966 9.0509 7.34727C9.35397 7.57489 9.57496 7.89475 9.68063 8.25875C9.79737 8.66379 9.99288 9.04183 10.256 9.37119C10.519 9.70055 10.8445 9.97476 11.2138 10.1781C11.5086 10.3363 11.7422 10.5885 11.8772 10.8947C12.0123 11.2009 12.041 11.5434 11.959 11.8678C11.8769 12.1922 11.6888 12.4799 11.4244 12.6851C11.16 12.8902 10.8346 13.0011 10.5 13Z" fill="#413301"/>
</svg>
