<svg width="50" height="50" viewBox="0 0 50 50" fill="none" xmlns="http://www.w3.org/2000/svg">
<path d="M43.2514 19.8278C43.7161 21.4717 43.9652 23.2071 43.9652 25.0002C43.9652 35.4743 35.4738 43.9657 24.9997 43.9657C14.5256 43.9657 6.03418 35.4743 6.03418 25.0002C6.03418 14.526 14.5256 6.03467 24.9997 6.03467C29.0092 6.03467 32.7738 7.30622 35.8376 9.4295" stroke="white" stroke-width="2.06897" stroke-miterlimit="10"/>
<path d="M24.9999 36.2068C31.1893 36.2068 36.2068 31.1893 36.2068 24.9999C36.2068 18.8105 31.1893 13.793 24.9999 13.793C18.8105 13.793 13.793 18.8105 13.793 24.9999C13.793 31.1893 18.8105 36.2068 24.9999 36.2068Z" stroke="white" stroke-width="2.06897" stroke-miterlimit="10" stroke-linecap="square"/>
<path d="M25 28.4483C26.9045 28.4483 28.4483 26.9045 28.4483 25C28.4483 23.0956 26.9045 21.5518 25 21.5518C23.0956 21.5518 21.5518 23.0956 21.5518 25C21.5518 26.9045 23.0956 28.4483 25 28.4483Z" stroke="white" stroke-width="2.06897" stroke-miterlimit="10" stroke-linecap="square"/>
<path d="M38.793 14.6553C40.6974 14.6553 42.2413 13.1115 42.2413 11.2071C42.2413 9.30263 40.6974 7.75879 38.793 7.75879C36.8886 7.75879 35.3447 9.30263 35.3447 11.2071C35.3447 13.1115 36.8886 14.6553 38.793 14.6553Z" stroke="white" stroke-width="2.06897" stroke-miterlimit="10" stroke-linecap="square"/>
</svg>
