<svg width="16" height="16" viewBox="0 0 16 16" fill="none" xmlns="http://www.w3.org/2000/svg">
<path d="M7.9999 6.7998C6.3999 6.7998 4.3999 9.1998 4.3999 11.3998C4.3999 11.8772 4.58954 12.335 4.92711 12.6726C5.26468 13.0102 5.72251 13.1998 6.1999 13.1998C7.1943 13.1998 7.1999 12.5998 7.9999 12.5998C8.7999 12.5998 8.8055 13.1998 9.7999 13.1998C10.2773 13.1998 10.7351 13.0102 11.0727 12.6726C11.4103 12.335 11.5999 11.8772 11.5999 11.3998C11.5999 9.1998 9.5999 6.7998 7.9999 6.7998Z" stroke="#9095A0" stroke-width="0.8" stroke-linecap="round" stroke-linejoin="round"/>
<path d="M3.11998 5.62242C2.98255 5.59901 2.84166 5.60603 2.70725 5.643C2.57284 5.67998 2.44817 5.74599 2.34205 5.83639C2.23594 5.9268 2.15095 6.03938 2.09309 6.16621C2.03522 6.29304 2.0059 6.43102 2.00718 6.57042C1.96515 6.87002 2.02945 7.17488 2.18891 7.43197C2.34838 7.68907 2.5929 7.88215 2.87998 7.97762C3.0174 8.00104 3.15829 7.99401 3.2927 7.95704C3.42712 7.92007 3.55178 7.85406 3.6579 7.76365C3.76401 7.67325 3.849 7.56066 3.90687 7.43383C3.96473 7.307 3.99405 7.16902 3.99278 7.02962C4.0348 6.73002 3.9705 6.42517 3.81104 6.16807C3.65157 5.91098 3.40705 5.7179 3.11998 5.62242Z" stroke="#9095A0" stroke-width="0.8" stroke-linecap="round" stroke-linejoin="round"/>
<path d="M12.8801 5.62251C13.0174 5.59948 13.158 5.6068 13.2921 5.64395C13.4262 5.6811 13.5506 5.74718 13.6564 5.83754C13.7623 5.9279 13.847 6.04035 13.9047 6.16698C13.9625 6.29361 13.9917 6.43135 13.9905 6.57051C14.0327 6.8698 13.9687 7.17441 13.8097 7.43147C13.6507 7.68852 13.4067 7.88178 13.1201 7.97771C12.9829 8.00073 12.8423 7.99341 12.7081 7.95626C12.574 7.91911 12.4497 7.85303 12.3438 7.76267C12.238 7.67231 12.1532 7.55986 12.0955 7.43323C12.0378 7.3066 12.0085 7.16887 12.0097 7.02971C11.9676 6.73041 12.0315 6.4258 12.1905 6.16875C12.3495 5.91169 12.5935 5.71843 12.8801 5.62251Z" stroke="#9095A0" stroke-width="0.8" stroke-linecap="round" stroke-linejoin="round"/>
<path d="M6.11747 2.82221C5.98022 2.79919 5.8396 2.80651 5.70548 2.84366C5.57137 2.88081 5.44702 2.94689 5.34118 3.03725C5.23534 3.12761 5.15058 3.24006 5.09286 3.36669C5.03513 3.49332 5.00585 3.63105 5.00707 3.77021C4.96518 4.07012 5.02983 4.37521 5.18976 4.63235C5.34968 4.8895 5.59475 5.08238 5.88227 5.17741C6.01952 5.20044 6.16014 5.19312 6.29426 5.15597C6.42837 5.11882 6.55272 5.05274 6.65856 4.96238C6.7644 4.87202 6.84916 4.75957 6.90688 4.63294C6.9646 4.50631 6.99389 4.36857 6.99267 4.22941C7.03456 3.92951 6.96991 3.62441 6.80998 3.36727C6.65006 3.11013 6.40499 2.91724 6.11747 2.82221Z" stroke="#9095A0" stroke-width="0.8" stroke-linecap="round" stroke-linejoin="round"/>
<path d="M9.88227 2.82221C10.0195 2.79919 10.1601 2.80651 10.2943 2.84366C10.4284 2.88081 10.5527 2.94689 10.6586 3.03725C10.7644 3.12761 10.8492 3.24006 10.9069 3.36669C10.9646 3.49332 10.9939 3.63105 10.9927 3.77021C11.0346 4.07012 10.9699 4.37521 10.81 4.63235C10.6501 4.8895 10.405 5.08238 10.1175 5.17741C9.98022 5.20044 9.8396 5.19312 9.70548 5.15597C9.57137 5.11882 9.44702 5.05274 9.34118 4.96238C9.23534 4.87202 9.15058 4.75957 9.09286 4.63294C9.03513 4.50631 9.00585 4.36857 9.00707 4.22941C8.96518 3.92951 9.02983 3.62441 9.18975 3.36727C9.34968 3.11013 9.59475 2.91724 9.88227 2.82221Z" stroke="#9095A0" stroke-width="0.8" stroke-linecap="round" stroke-linejoin="round"/>
</svg>
