<svg width="16" height="16" viewBox="0 0 16 16" fill="none" xmlns="http://www.w3.org/2000/svg">
<path d="M14.7077 11.25L12.4427 8.98433L10.1639 1.4662C10.0991 1.25213 9.98259 1.05733 9.82456 0.899059C9.66653 0.74079 9.47191 0.623939 9.25793 0.558855C9.04395 0.493772 8.81722 0.482465 8.59783 0.525937C8.37844 0.569409 8.17315 0.666318 8.00016 0.808079C7.82717 0.666318 7.62188 0.569409 7.40249 0.525937C7.1831 0.482465 6.95637 0.493772 6.7424 0.558855C6.52842 0.623939 6.33379 0.74079 6.17576 0.899059C6.01773 1.05733 5.90117 1.25213 5.83641 1.4662L3.55766 8.98495L1.29266 11.25C1.10527 11.4375 1 11.6917 1 11.9568C1 12.2219 1.10527 12.4762 1.29266 12.6637L3.33579 14.7068C3.42865 14.7997 3.5389 14.8734 3.66024 14.9237C3.78158 14.9739 3.91163 14.9998 4.04297 14.9998C4.17431 14.9998 4.30437 14.9739 4.42571 14.9237C4.54705 14.8734 4.6573 14.7997 4.75016 14.7068L7.76766 11.6875C7.85131 11.6036 7.929 11.514 8.00016 11.4193C8.07132 11.514 8.14901 11.6036 8.23266 11.6875L11.2502 14.7075C11.343 14.8003 11.4533 14.874 11.5746 14.9243C11.696 14.9746 11.826 15.0004 11.9573 15.0004C12.0887 15.0004 12.2187 14.9746 12.3401 14.9243C12.4614 14.874 12.5717 14.8003 12.6645 14.7075L14.7077 12.6643C14.8005 12.5715 14.8742 12.4612 14.9245 12.3399C14.9748 12.2185 15.0006 12.0885 15.0006 11.9571C15.0006 11.8258 14.9748 11.6957 14.9245 11.5744C14.8742 11.4531 14.8005 11.3428 14.7077 11.25ZM7.50016 9.92183C7.50116 10.1191 7.463 10.3145 7.3879 10.4969C7.3128 10.6793 7.20225 10.845 7.06266 10.9843L5.54266 12.5L3.50016 10.4575L4.35329 9.6037C4.41151 9.54548 4.45444 9.47377 4.47829 9.39495L6.79079 1.7562C6.81424 1.6712 6.86798 1.59772 6.94186 1.54959C7.01575 1.50147 7.10469 1.48203 7.19192 1.49494C7.27914 1.50785 7.35864 1.55222 7.41541 1.61969C7.47219 1.68715 7.50234 1.77305 7.50016 1.8612L7.50016 9.92183ZM10.4652 12.5081L8.93766 10.9825C8.79807 10.8431 8.68752 10.6774 8.61242 10.4951C8.53732 10.3127 8.49916 10.1172 8.50016 9.91995L8.50016 1.85745C8.50018 1.77086 8.53131 1.68715 8.58788 1.62158C8.64444 1.55601 8.72268 1.51294 8.80833 1.50022C8.89399 1.4875 8.98137 1.50597 9.05455 1.55226C9.12773 1.59856 9.18184 1.6696 9.20704 1.75245L11.5195 9.3912C11.5434 9.47002 11.5863 9.54173 11.6445 9.59995L12.5502 10.5056L10.4652 12.5081Z" fill="#9095A0"/>
</svg>
