<svg width="20" height="20" viewBox="0 0 20 20" fill="none" xmlns="http://www.w3.org/2000/svg">
<path d="M15.5 8.00007C15.5007 7.02239 15.2408 6.06219 14.747 5.21835C14.2532 4.37452 13.5435 3.67756 12.6908 3.19924C11.8381 2.72093 10.8733 2.47856 9.89579 2.49708C8.91828 2.51561 7.96337 2.79436 7.12942 3.30464C6.29546 3.81492 5.6126 4.53827 5.15115 5.40021C4.6897 6.26214 4.46635 7.2315 4.5041 8.20846C4.54185 9.18542 4.83934 10.1347 5.36592 10.9584C5.89251 11.7822 6.62915 12.4507 7.5 12.8951L7.5 17.5001L12.5 17.5001L12.5 12.9001C13.4031 12.4392 14.1613 11.7377 14.6907 10.8729C15.2201 10.0082 15.5002 9.01399 15.5 8.00007Z" stroke="#2E2400" stroke-linecap="round" stroke-linejoin="round"/>
<path d="M7.5 15.5L12.5 15.5" stroke="#2E2400" stroke-linecap="round" stroke-linejoin="round"/>
<path d="M7.5 8C7.5 7.33696 7.76339 6.70107 8.23223 6.23223C8.70107 5.76339 9.33696 5.5 10 5.5" stroke="#2E2400" stroke-linecap="round" stroke-linejoin="round"/>
</svg>
