<svg width="383" height="371" viewBox="0 0 383 371" fill="none" xmlns="http://www.w3.org/2000/svg">
<path d="M245.256 341.557L249.549 354.584L253.07 353.424L248.777 340.397L245.256 341.557Z" fill="#FDCB12" fill-opacity="0.9"/>
<path d="M329.065 158.058L335.384 161.569L338.985 155.087L332.665 151.576L329.065 158.058Z" fill="#FDCB12" fill-opacity="0.35"/>
<path d="M333.43 312.606L337.239 317.639L342.42 313.718L338.611 308.685L333.43 312.606Z" fill="#FDCB12" fill-opacity="0.65"/>
<path d="M260.723 352.1L247.696 348.103L246.346 352.504L259.373 356.501L260.723 352.1Z" fill="#FDCB12" fill-opacity="0.6"/>
<path d="M351.063 316.099L352.935 312.066L349.575 310.505L347.702 314.538L351.063 316.099Z" fill="#FFF46B" fill-opacity="0.75"/>
<path d="M80.7186 266.478L76.8416 271.443L81.2227 274.864L85.0997 269.899L80.7186 266.478Z" fill="#FDCB12" fill-opacity="0.85"/>
<path d="M382.645 67.7321L374.147 60.8864L371.246 64.4873L379.744 71.333L382.645 67.7321Z" fill="#FDCB12" fill-opacity="0.75"/>
<path d="M215.033 240.923L223.659 243.765L225.399 238.484L216.773 235.641L215.033 240.923Z" fill="#FDCB12"/>
<path d="M275.121 50.071L266.155 54.3921L268.956 60.2036L277.922 55.8825L275.121 50.071Z" fill="#FDCB12" fill-opacity="0.9"/>
<path d="M105.166 99.9575L99.945 98.7392L98.2646 105.941L103.486 107.159L105.166 99.9575Z" fill="#FDCB12" fill-opacity="0.75"/>
<path d="M248.317 153.831L240.307 155.063L241.007 159.615L249.017 158.382L248.317 153.831Z" fill="#FFF46B"/>
<path d="M351.29 83.4193L358.468 83.0292L358.068 75.6673L350.89 76.0574L351.29 83.4193Z" fill="#FDCB12" fill-opacity="0.65"/>
<path d="M262.035 34.405L249.474 36.8896L250.734 43.2612L263.295 40.7766L262.035 34.405Z" fill="#FDCB12" fill-opacity="0.75"/>
<path d="M95.1219 141.239H87.0238V144.92H95.1219V141.239Z" fill="#FDCB12" fill-opacity="0.85"/>
<path d="M261.887 311.943L271.687 303.799L269.327 300.958L259.526 309.102L261.887 311.943Z" fill="#FFF46B"/>
<path d="M194.675 195.163L196.883 207.725L204.165 206.444L201.957 193.883L194.675 195.163Z" fill="#FFF46B" fill-opacity="0.9"/>
<path d="M343.238 238.415L342.794 252.035L350.156 252.275L350.6 238.655L343.238 238.415Z" fill="#FFF46B" fill-opacity="0.35"/>
<path d="M155.473 6.25653L152.546 8.23303L156.707 14.3946L159.634 12.4181L155.473 6.25653Z" fill="#FDCB12" fill-opacity="0.65"/>
<path d="M314.149 246.505C314.658 246.505 315.07 246.093 315.07 245.585C315.07 245.077 314.658 244.665 314.149 244.665C313.641 244.665 313.229 245.077 313.229 245.585C313.229 246.093 313.641 246.505 314.149 246.505Z" fill="#FFF46B"/>
<path d="M36.2299 315.763C36.7381 315.763 37.1501 315.351 37.1501 314.842C37.1501 314.334 36.7381 313.922 36.2299 313.922C35.7217 313.922 35.3097 314.334 35.3097 314.842C35.3097 315.351 35.7217 315.763 36.2299 315.763Z" fill="#FDCB12"/>
<path d="M134.104 240.033C135.629 240.033 136.865 238.797 136.865 237.273C136.865 235.748 135.629 234.512 134.104 234.512C132.58 234.512 131.344 235.748 131.344 237.273C131.344 238.797 132.58 240.033 134.104 240.033Z" fill="#FDCB12" fill-opacity="0.35"/>
<path d="M11.3029 367.476C12.8276 367.476 14.0636 366.24 14.0636 364.715C14.0636 363.19 12.8276 361.954 11.3029 361.954C9.77819 361.954 8.54219 363.19 8.54219 364.715C8.54219 366.24 9.77819 367.476 11.3029 367.476Z" fill="#FDCB12"/>
<path d="M254.594 193.862C255.357 193.862 255.975 193.244 255.975 192.482C255.975 191.719 255.357 191.101 254.594 191.101C253.832 191.101 253.214 191.719 253.214 192.482C253.214 193.244 253.832 193.862 254.594 193.862Z" fill="#FFF46B" fill-opacity="0.6"/>
<path d="M26.9972 237.263C28.0136 237.263 28.8376 236.439 28.8376 235.422C28.8376 234.406 28.0136 233.582 26.9972 233.582C25.9807 233.582 25.1567 234.406 25.1567 235.422C25.1567 236.439 25.9807 237.263 26.9972 237.263Z" fill="#FDCB12" fill-opacity="0.35"/>
<path d="M253.214 11.9363C253.722 11.9363 254.134 11.5243 254.134 11.016C254.134 10.5078 253.722 10.0958 253.214 10.0958C252.706 10.0958 252.294 10.5078 252.294 11.016C252.294 11.5243 252.706 11.9363 253.214 11.9363Z" fill="#FDCB12" fill-opacity="0.65"/>
<path d="M310.918 84.8946C311.68 84.8946 312.298 84.2766 312.298 83.5143C312.298 82.7519 311.68 82.1339 310.918 82.1339C310.156 82.1339 309.538 82.7519 309.538 83.5143C309.538 84.2766 310.156 84.8946 310.918 84.8946Z" fill="#FDCB12" fill-opacity="0.85"/>
<path d="M370.013 216.948C371.284 216.948 372.314 215.918 372.314 214.647C372.314 213.376 371.284 212.346 370.013 212.346C368.743 212.346 367.713 213.376 367.713 214.647C367.713 215.918 368.743 216.948 370.013 216.948Z" fill="#FDCB12"/>
<path d="M241.211 49.7955C242.228 49.7955 243.052 48.9715 243.052 47.9551C243.052 46.9386 242.228 46.1146 241.211 46.1146C240.195 46.1146 239.371 46.9386 239.371 47.9551C239.371 48.9715 240.195 49.7955 241.211 49.7955Z" fill="#FDCB12" fill-opacity="0.65"/>
<path d="M63.9362 78.4229C64.9526 78.4229 65.7766 77.5989 65.7766 76.5824C65.7766 75.5659 64.9526 74.7419 63.9362 74.7419C62.9197 74.7419 62.0957 75.5659 62.0957 76.5824C62.0957 77.5989 62.9197 78.4229 63.9362 78.4229Z" fill="#FDCB12" fill-opacity="0.75"/>
<path d="M105.477 352.702C107.002 352.702 108.238 351.466 108.238 349.941C108.238 348.417 107.002 347.181 105.477 347.181C103.952 347.181 102.716 348.417 102.716 349.941C102.716 351.466 103.952 352.702 105.477 352.702Z" fill="#FDCB12" fill-opacity="0.9"/>
<path d="M370.473 320.373C371.998 320.373 373.234 319.137 373.234 317.613C373.234 316.088 371.998 314.852 370.473 314.852C368.949 314.852 367.713 316.088 367.713 317.613C367.713 319.137 368.949 320.373 370.473 320.373Z" fill="#FDCB12" fill-opacity="0.6"/>
<path d="M79.1705 66.4199C80.4411 66.4199 81.4711 65.3899 81.4711 64.1193C81.4711 62.8488 80.4411 61.8188 79.1705 61.8188C77.8999 61.8188 76.8699 62.8488 76.8699 64.1193C76.8699 65.3899 77.8999 66.4199 79.1705 66.4199Z" fill="#FDCB12" fill-opacity="0.45"/>
<path d="M13.1539 192.932C14.6786 192.932 15.9146 191.696 15.9146 190.171C15.9146 188.646 14.6786 187.41 13.1539 187.41C11.6292 187.41 10.3932 188.646 10.3932 190.171C10.3932 191.696 11.6292 192.932 13.1539 192.932Z" fill="#FDCB12"/>
<path d="M214.894 119.053C216.165 119.053 217.195 118.023 217.195 116.753C217.195 115.482 216.165 114.452 214.894 114.452C213.623 114.452 212.593 115.482 212.593 116.753C212.593 118.023 213.623 119.053 214.894 119.053Z" fill="#FDCB12" fill-opacity="0.65"/>
<path d="M334.464 149.531C335.481 149.531 336.305 148.707 336.305 147.69C336.305 146.674 335.481 145.85 334.464 145.85C333.448 145.85 332.624 146.674 332.624 147.69C332.624 148.707 333.448 149.531 334.464 149.531Z" fill="#FFF46B"/>
<path d="M147.027 46.0946C148.552 46.0946 149.788 44.8586 149.788 43.3339C149.788 41.8092 148.552 40.5732 147.027 40.5732C145.503 40.5732 144.267 41.8092 144.267 43.3339C144.267 44.8586 145.503 46.0946 147.027 46.0946Z" fill="#FDCB12" fill-opacity="0.45"/>
<path d="M285.563 328.883L285.427 332.785L281.525 332.649L281.661 328.747L285.563 328.883Z" fill="#FDCB12"/>
<path d="M324.472 247.545L325.582 244.496L328.826 244.609L329.72 247.728L327.03 249.543L324.472 247.545Z" fill="#FDCB12" fill-opacity="0.45"/>
<path d="M192.357 111.378L196.415 109.311L198.483 113.369L194.425 115.438L192.357 111.378Z" fill="#FFF46B"/>
<path d="M370.225 174.485L372.74 175.159L372.066 177.673L369.552 176.999L370.225 174.485Z" fill="#FDCB12" fill-opacity="0.65"/>
<path d="M227.269 158.536L229.355 161.022L227.635 163.774L224.486 162.989L224.259 159.752L227.269 158.536Z" fill="#FFF46B" fill-opacity="0.9"/>
<path d="M133.642 241.262L133.034 244.392L130.629 242.3L133.642 241.262Z" fill="#FFF46B" fill-opacity="0.6"/>
<path d="M177.268 219.878L178.311 223.517L175.172 225.635L172.189 223.304L173.484 219.745L177.268 219.878Z" fill="#FDCB12" fill-opacity="0.6"/>
<path d="M176.555 1.77231L177.797 0L179.865 0.632574L179.903 2.79584L177.857 3.50024L176.555 1.77231Z" fill="#FFF46B" fill-opacity="0.45"/>
<path d="M93.5783 322.114L90.9863 324.067L88.3279 322.207L89.2767 319.103L92.5219 319.046L93.5783 322.114Z" fill="#FDCB12"/>
<path d="M134.002 298.559L137.248 298.786L137.021 302.031L133.775 301.805L134.002 298.559Z" fill="#FDCB12" fill-opacity="0.75"/>
<path d="M95.245 7.39192L98.1152 5.92971L100.816 7.68389L100.648 10.9003L97.7775 12.3625L95.0766 10.6084L95.245 7.39192Z" fill="#FFF46B" fill-opacity="0.75"/>
<path d="M45.4677 350.923L47.834 352.345L47.7859 355.106L45.3713 356.444L43.005 355.022L43.0532 352.262L45.4677 350.923Z" fill="#FDCB12" fill-opacity="0.35"/>
<path d="M196.834 352.082L201.098 355.068L198.112 359.332L193.849 356.346L196.834 352.082Z" fill="#FDCB12"/>
<path d="M148.724 110.71L151.927 110.373L153.821 112.979L152.51 115.922L149.307 116.258L147.414 113.652L148.724 110.71Z" fill="#FDCB12" fill-opacity="0.45"/>
<path d="M31.5711 112.098L32.9171 113.353L32.5031 115.146L30.7431 115.684L29.397 114.428L29.811 112.636L31.5711 112.098Z" fill="#FDCB12" fill-opacity="0.35"/>
<path d="M300.016 343.83L304.908 342.049L306.688 346.941L301.796 348.721L300.016 343.83Z" fill="#FDCB12" fill-opacity="0.35"/>
<path d="M9.52031 155.38L13.8988 156.636L12.6432 161.014L8.26477 159.758L9.52031 155.38Z" fill="#FDCB12" fill-opacity="0.65"/>
<path d="M131.128 48.3406L130.871 46.518L132.321 45.3849L134.028 46.0744L134.284 47.897L132.834 49.0301L131.128 48.3406Z" fill="#FDCB12" fill-opacity="0.6"/>
<path d="M173.054 205.956L175.37 204.619L174.815 202.003L176.802 203.792L179.118 202.455L178.03 204.898L180.018 206.688L177.358 206.409L176.27 208.852L175.715 206.236L173.054 205.956Z" fill="#FFF46B" fill-opacity="0.9"/>
<path d="M362.428 235.874L360.335 236.674L361.067 238.793L359.327 237.38L357.858 239.073L358.212 236.86L356.011 236.435L358.105 235.634L357.372 233.516L359.113 234.929L360.581 233.235L360.227 235.449L362.428 235.874Z" fill="#FFF46B" fill-opacity="0.45"/>
<path d="M112.869 125.515L112.341 123.667L110.478 124.135L111.814 122.754L110.478 121.374L112.341 121.841L112.869 119.994L113.396 121.841L115.259 121.374L113.923 122.754L115.259 124.135L113.396 123.667L112.869 125.515Z" fill="#FDCB12" fill-opacity="0.75"/>
<path d="M95.9821 366.519L98.279 366.965L99.4137 364.919L99.699 367.242L101.996 367.688L99.8747 368.677L100.16 371L98.5643 369.288L96.4432 370.277L97.5778 368.231L95.9821 366.519Z" fill="#FDCB12" fill-opacity="0.6"/>
<path d="M86.2813 202.413L87.014 200.911L85.8116 199.75L87.4668 199.982L88.1995 198.48L88.4898 200.126L90.145 200.359L88.6692 201.144L88.9594 202.789L87.7571 201.629L86.2813 202.413Z" fill="#FFF46B" fill-opacity="0.85"/>
<path d="M189.529 155.687L192.032 155.543L193.551 153.549L193.696 156.052L195.689 157.571L193.187 157.716L191.668 159.709L191.523 157.207L189.529 155.687Z" fill="#FFF46B" fill-opacity="0.9"/>
<path d="M244.895 222.698L245.115 223.959L246.384 223.78L245.402 224.602L246.191 225.61L244.989 225.17L244.51 226.358L244.289 225.097L243.021 225.277L244.003 224.454L243.213 223.447L244.416 223.886L244.895 222.698Z" fill="#FDCB12" fill-opacity="0.85"/>
<path d="M344.359 96.9345L344.025 98.1713L345.251 98.544L344.014 98.8743L344.303 100.122L343.399 99.2148L342.463 100.09L342.796 98.8532L341.571 98.4805L342.808 98.1501L342.519 96.9023L343.424 97.8096L344.359 96.9345Z" fill="#FDCB12" fill-opacity="0.6"/>
<path d="M59.7426 350.405L60.0518 352.626L62.2807 352.389L60.5126 353.766L61.8324 355.578L59.7552 354.736L58.8461 356.785L58.537 354.565L56.3081 354.801L58.0761 353.424L56.7563 351.612L58.8335 352.455L59.7426 350.405Z" fill="#FFF46B" fill-opacity="0.65"/>
<path d="M254.076 27.1032L255.121 24.7644L252.817 23.6443L255.366 23.3798L255.183 20.8246L256.686 22.8989L258.808 21.4638L257.764 23.8026L260.067 24.9227L257.519 25.1873L257.701 27.7424L256.198 25.6681L254.076 27.1032Z" fill="#FDCB12" fill-opacity="0.35"/>
<path d="M20.1906 248.392L21.3325 247.811L20.7898 246.652L21.8631 247.35L22.5965 246.3L22.5278 247.579L23.8039 247.69L22.6619 248.269L23.2047 249.43L22.1314 248.731L21.3981 249.78L21.4667 248.501L20.1906 248.392Z" fill="#FDCB12" fill-opacity="0.85"/>
<path d="M7.34391 26.7077L4.83757 27.2371L5.28557 29.7593L3.57388 27.8535L1.61362 29.5025L2.40826 27.0672L0 26.1941L2.50634 25.6647L2.05835 23.1425L3.77004 25.0483L5.73031 23.3993L4.93565 25.8346L7.34391 26.7077Z" fill="#FFF46B" fill-opacity="0.75"/>
<path d="M367.921 60.9095L365.45 60.4874L363.521 62.0884L363.943 59.6175L362.342 57.6887L364.813 58.1108L366.742 56.5098L366.319 58.9807L367.921 60.9095Z" fill="#FFF46B" fill-opacity="0.65"/>
<path d="M144.945 302.173L146.411 300.805L145.564 298.987L147.318 299.96L148.785 298.591L148.403 300.56L150.157 301.533L148.166 301.777L147.784 303.746L146.936 301.928L144.945 302.173Z" fill="#FDCB12" fill-opacity="0.85"/>
<path d="M118.383 89.0517L118.894 91.6769L121.548 92.0028L119.209 93.299L119.719 95.9244L117.764 94.1005L115.425 95.3971L116.555 92.9732L114.598 91.1495L117.253 91.4755L118.383 89.0517Z" fill="#FDCB12"/>
<path d="M43.611 171.706L41.596 172.452L40.8503 174.467L40.1047 172.452L38.0897 171.706L40.1047 170.961L40.8503 168.946L41.596 170.961L43.611 171.706Z" fill="#FDCB12"/>
<path d="M320.666 325.661L318.327 324.364L316.37 326.188L316.881 323.562L314.542 322.266L317.197 321.94L317.707 319.315L318.837 321.739L321.492 321.413L319.535 323.237L320.666 325.661Z" fill="#FFF46B" fill-opacity="0.45"/>
<path d="M255.056 210.446L254.665 209.168L253.328 209.144L254.423 208.377L254.032 207.098L255.101 207.903L256.196 207.136L255.761 208.4L256.828 209.205L255.491 209.181L255.056 210.446Z" fill="#FDCB12" fill-opacity="0.9"/>
</svg>
