<svg width="16" height="16" viewBox="0 0 16 16" fill="none" xmlns="http://www.w3.org/2000/svg">
<path d="M14.708 5.99985L6.00047 14.7067C5.90761 14.7996 5.79736 14.8733 5.67602 14.9236C5.55468 14.9738 5.42463 14.9997 5.29329 14.9997C5.16195 14.9997 5.03189 14.9738 4.91055 14.9236C4.78921 14.8733 4.67896 14.7996 4.5861 14.7067L1.29297 11.4142C1.20009 11.3214 1.12641 11.2111 1.07614 11.0898C1.02587 10.9684 1 10.8384 1 10.707C1 10.5757 1.02587 10.4456 1.07614 10.3243C1.12641 10.203 1.20009 10.0927 1.29297 9.99985L3.1161 8.17672C3.13932 8.15348 3.16689 8.13504 3.19724 8.12246C3.22759 8.10988 3.26012 8.1034 3.29297 8.1034C3.32583 8.1034 3.35836 8.10988 3.38871 8.12246C3.41906 8.13504 3.44663 8.15348 3.46985 8.17672L5.64672 10.3536C5.69533 10.4022 5.75344 10.4402 5.81741 10.4653C5.88138 10.4905 5.94984 10.5021 6.01852 10.4996C6.08719 10.4971 6.15462 10.4804 6.21657 10.4507C6.27852 10.4209 6.33368 10.3787 6.3786 10.3267C6.46071 10.2277 6.50246 10.1013 6.49551 9.97282C6.48856 9.84435 6.43342 9.72322 6.3411 9.6336L4.17672 7.46922C4.12997 7.42236 4.10371 7.35886 4.10371 7.29266C4.10371 7.22646 4.12997 7.16297 4.17672 7.1161L5.11422 6.1786C5.13744 6.15535 5.16501 6.13691 5.19536 6.12433C5.22571 6.11175 5.25824 6.10528 5.2911 6.10528C5.32395 6.10528 5.35648 6.11175 5.38683 6.12433C5.41718 6.13691 5.44476 6.15535 5.46797 6.1786L7.64485 8.35547C7.69346 8.40405 7.75156 8.44209 7.81553 8.46721C7.8795 8.49233 7.94796 8.504 8.01664 8.50147C8.08532 8.49895 8.15274 8.4823 8.21469 8.45256C8.27665 8.42281 8.33181 8.38061 8.37672 8.3286C8.45884 8.22954 8.50058 8.10317 8.49363 7.9747C8.48668 7.84622 8.43155 7.72509 8.33922 7.63547L6.17735 5.46922C6.1306 5.42236 6.10434 5.35886 6.10434 5.29266C6.10434 5.22646 6.1306 5.16297 6.17735 5.1161L7.11485 4.1786C7.16172 4.13185 7.22521 4.10559 7.29141 4.10559C7.35761 4.10559 7.42111 4.13185 7.46797 4.1786L9.64485 6.35547C9.69347 6.40416 9.75161 6.44228 9.81564 6.46746C9.87967 6.49264 9.9482 6.50433 10.017 6.50181C10.0857 6.49929 10.1532 6.4826 10.2152 6.4528C10.2772 6.42299 10.3324 6.38071 10.3773 6.3286C10.4594 6.22947 10.501 6.10305 10.494 5.97457C10.4869 5.8461 10.4316 5.72501 10.3392 5.63547L8.17735 3.46922C8.1306 3.42236 8.10434 3.35886 8.10434 3.29266C8.10434 3.22646 8.1306 3.16297 8.17735 3.1161L10.0005 1.29297C10.0933 1.20009 10.2036 1.12641 10.3249 1.07614C10.4463 1.02587 10.5763 1 10.7077 1C10.839 1 10.9691 1.02587 11.0904 1.07614C11.2117 1.12641 11.322 1.20009 11.4148 1.29297L14.708 4.58547C14.8009 4.67834 14.8745 4.78858 14.9248 4.90992C14.9751 5.03127 15.0009 5.16132 15.0009 5.29266C15.0009 5.424 14.9751 5.55406 14.9248 5.6754C14.8745 5.79674 14.8009 5.90699 14.708 5.99985Z" fill="#413301"/>
</svg>
