<svg width="16" height="16" viewBox="0 0 16 16" fill="none" xmlns="http://www.w3.org/2000/svg">
<path d="M5.6 8.7998H2L2 10.7998L7.6 10.7998" stroke="#413301" stroke-width="0.96" stroke-miterlimit="10"/>
<path d="M7.2002 8.7998L14.0002 8.7998V10.7998L11.6002 10.7998H9.2002" stroke="#413301" stroke-width="0.96" stroke-miterlimit="10"/>
<path d="M2.66699 4.2666L11.7334 13.333" stroke="#413301" stroke-width="0.96" stroke-miterlimit="10" stroke-linecap="square"/>
<path d="M12 8.7998V10.7998" stroke="#413301" stroke-width="0.96" stroke-miterlimit="10"/>
<path d="M8 3.2002C8 3.73063 8.21071 4.23934 8.58579 4.61441C8.96086 4.98948 9.46957 5.2002 10 5.2002C10.5304 5.2002 11.0391 5.41091 11.4142 5.78598C11.7893 6.16105 12 6.66976 12 7.2002" stroke="#413301" stroke-width="0.96" stroke-miterlimit="10" stroke-linecap="square"/>
<path d="M10 3.2002C11.0609 3.2002 12.0783 3.62162 12.8284 4.37177C13.5786 5.12191 14 6.13933 14 7.2002" stroke="#413301" stroke-width="0.96" stroke-miterlimit="10" stroke-linecap="square"/>
</svg>
