<svg width="88" height="32" viewBox="0 0 88 32" fill="none" xmlns="http://www.w3.org/2000/svg">
<g clip-path="url(#clip0_140_1552)">
<path d="M53.6046 22.4819C52.4193 20.5231 51.7789 18.2832 51.7496 15.9939V12.0059C51.7496 9.88413 50.9068 7.8493 49.4065 6.349C47.9062 4.84871 45.8714 4.00586 43.7496 4.00586C41.6279 4.00586 39.5931 4.84871 38.0928 6.349C36.5925 7.8493 35.7496 9.88413 35.7496 12.0059V15.9879C35.7213 18.2792 35.0809 20.5213 33.8946 22.4819C33.8028 22.6335 33.7529 22.8068 33.7501 22.9841C33.7473 23.1613 33.7917 23.3361 33.8787 23.4906C33.9657 23.6451 34.0922 23.7736 34.2452 23.8631C34.3983 23.9526 34.5723 23.9998 34.7496 23.9999L52.7496 23.9999C52.9269 23.9998 53.101 23.9526 53.254 23.8631C53.407 23.7736 53.5335 23.6451 53.6205 23.4906C53.7075 23.3361 53.7519 23.1613 53.7491 22.9841C53.7463 22.8068 53.6964 22.6335 53.6046 22.4819Z" fill="#565E6C"/>
<path d="M44.7568 27.8249C45.1759 27.6755 45.5566 27.4348 45.8712 27.1202C46.1858 26.8056 46.4265 26.425 46.5758 26.0059H40.9238C41.0561 26.377 41.2601 26.7184 41.5243 27.0107C41.7885 27.3029 42.1077 27.5403 42.4636 27.7092C42.8195 27.8781 43.2052 27.9753 43.5987 27.9951C43.9922 28.015 44.3857 27.9571 44.7568 27.8249Z" fill="#565E6C"/>
<rect x="45.2695" y="-1.52002" width="16" height="16" rx="7" fill="#DE3B40"/>
<rect x="45.2695" y="-1.52002" width="16" height="16" rx="7" stroke="white" stroke-width="2"/>
<path d="M55.9195 3.43453V9.97998H55.1524L51.5857 4.84078H51.5218V9.97998H50.7291V3.43453H51.4962L55.0757 8.58651H55.1396V3.43453H55.9195Z" fill="white"/>
</g>
<defs>
<clipPath id="clip0_140_1552">
<rect width="87.5" height="32" fill="white"/>
</clipPath>
</defs>
</svg>
