<svg width="44" height="44" viewBox="0 0 44 44" fill="none" xmlns="http://www.w3.org/2000/svg">
<path d="M8.7998 11.4126C12.6427 9.05774 17.1629 7.7002 22.0002 7.7002C26.5475 7.7002 30.9286 8.93181 34.6163 11.0319" stroke="#171A1F" stroke-width="2.64" stroke-miterlimit="10"/>
<path d="M33.0148 5.92773L34.616 11.0316L29.4282 12.6297" stroke="#171A1F" stroke-width="2.64" stroke-miterlimit="10" stroke-linecap="square"/>
<path d="M13.9411 22.7856L12.314 25.6566" stroke="#171A1F" stroke-width="2.64" stroke-miterlimit="10"/>
<path d="M22.0998 38.5005L26.8486 32.4848C27.9563 31.0818 27.7453 29.0519 26.3729 27.9065L19.3962 22.0842L23.1928 15.3852C23.7919 14.3281 23.4206 12.9856 22.3635 12.3865C21.3065 11.7874 19.9639 12.1587 19.3648 13.2158L15.3522 20.2959L13.9412 22.7857L12.0272 21.701C10.9701 21.1019 9.62754 21.4732 9.02846 22.5303L7.45815 25.3011C6.7192 26.6049 6.446 28.1215 6.68352 29.6012L7.43281 34.2697" stroke="#171A1F" stroke-width="2.64" stroke-miterlimit="10"/>
</svg>
